<svg xmlns="http://www.w3.org/2000/svg" width="210mm" height="210mm" viewBox="0 0 200 200"><defs><clipPath id="c"><path d="M5.159 0h1200v699.5h-1200V0z"/></clipPath><clipPath id="b"><path d="M546.602 321.856c0-33.137 26.863-59.999 60-59.999s60 26.862 60 59.999-26.863 60.001-60 60.001-60-26.864-60-60.001"/></clipPath><clipPath id="a"><path d="M5.159 0h1200v699.5h-1200V0z"/></clipPath></defs><g clip-path="url(#a)" transform="matrix(1.5455 0 0 -1.5455 -836.997 597.98)"><path d="M666.602 321.856c0-33.137-26.863-60-60-60s-60 26.863-60 60 26.863 60 60 60 60-26.863 60-60" fill="#96bbd2"/></g><g clip-path="url(#b)" transform="matrix(1.5455 0 0 -1.5455 -836.997 597.98)"><path d="M604.205 294.467h-96.174v21.915h96.174v-21.915zM675.482 294.467h-34.718v21.915h34.718v-21.915z" fill="#353535"/><path d="M604.205 312.822h-96.174v1.674h96.174v-1.674zM604.205 296.639h-96.174v1.674h96.174v-1.674zM675.713 312.822h-34.949v1.674h34.949v-1.674zM675.713 296.639h-34.949v1.674h34.949v-1.674zM514.529 305.425h-6.497v1.674h6.497v-1.674zM525.769 305.425h-6.497v1.674h6.497v-1.674zM537.01 305.425h-6.497v1.674h6.497v-1.674zM548.25 305.425h-6.497v1.674h6.497v-1.674zM559.49 305.425h-6.497v1.674h6.497v-1.674zM570.731 305.425h-6.497v1.674h6.497v-1.674zM581.971 305.425h-6.497v1.674h6.497v-1.674zM593.211 305.425h-6.497v1.674h6.497v-1.674zM604.452 305.425h-6.497v1.674h6.497v-1.674zM653.001 305.425h-6.497v1.674h6.497v-1.674zM664.241 305.425h-6.497v1.674h6.497v-1.674zM675.482 305.425h-6.497v1.674h6.497v-1.674z" fill="#f5f5f5"/><path d="M526.918 312.584l.784.488 10.207-.798 30.246-.854 9.588-.126.955-.163 1.78 2.712-4.142 5.92-14.256-.664-32.945 1.275-3.61-4.832 1.393-2.957z" fill="#171a1d"/><path d="M585.854 313.055c-.258.535 0 1.598 0 1.598l-.058 1.714s-.64 3.744-2.602 4.674c-1.963.929-10.274 2.877-15.42 3.29 0 0-9.618 5.134-14.233 5.526-4.638.394-12.048 1.033-17.67-.671-5.62-1.704-9.804-3.15-9.804-3.15s-5.68-.492-5.988-1.318c-.31-.827-.003-1.704-.003-1.704s-.884-1.705-.73-2.583c.155-.877-1.768-2.065-1.251-4.183.516-2.117-.648-2.167 2.089-2.903 2.737-.737 4.96-.67 4.96-.67l1.297-.077.477-.014c-.027.231-.068.458-.068.696 0 3.152 2.498 5.706 5.579 5.706 3.082 0 5.58-2.554 5.58-5.706 0-.344-.042-.678-.1-1.006l30.246-.854a5.773 5.773 0 0 0-.264 1.646c0 3.152 2.498 5.707 5.58 5.707 3.08 0 5.579-2.555 5.579-5.706 0-.683-.137-1.33-.352-1.936 1.295.004 6.459.078 6.865 1.052 0 0 .549.337.29.872" fill="#37404a"/><path d="M585.854 313.055c-.258.535 0 1.598 0 1.598l-.058 1.714s-.087.502-.291 1.182c-.03.008-.052.027-.081.033-.681.133-1.156-.464-1.768-.63a8.768 8.768 0 0 0-1.205-.24c-.932-.114-1.922-.27-2.86-.247-1.668.039-2.313 1.864-3.828 2.335-.702.218-1.55.848-2.27.823-.862-.03-1.655-.674-2.515-.737-.705-.053-1.408-.11-2.08-.34-.74-.254-1.166-.699-2.001-.469-.376.104-.878.294-1.161.571-.155.151-.195.388-.346.53-.371.345-11.6.183-13.911.117-3.846-.11-12.635.035-13.55.134-1.637.177-3.176.346-4.83.292-1.355-.044-2.587-.375-3.88-.725-2.008-.543-4.25-.833-6.185.142-.946.476-1.541 1.077-2.68.914-.422-.06-.822-.2-1.215-.356-.453-.802-1.43-1.865-1.044-3.449.516-2.117-.648-2.167 2.089-2.903 2.737-.736 4.96-.67 4.96-.67l1.297-.076.477-.014c-.027.231-.068.458-.068.696 0 3.152 2.498 5.706 5.579 5.706 3.082 0 5.58-2.554 5.58-5.706 0-.344-.042-.678-.1-1.006l30.246-.854a5.773 5.773 0 0 0-.264 1.646c0 3.151 2.498 5.706 5.58 5.706 3.08 0 5.579-2.555 5.579-5.706 0-.683-.137-1.329-.352-1.936 1.295.004 6.459.078 6.865 1.052 0 0 .549.337.29.872" fill="#262c33"/><path d="M568.34 313.224a4.912 4.912 0 1 0 9.823 0 4.912 4.912 0 0 0-9.824 0" fill="#575d68"/><path d="M569.91 313.224a3.342 3.342 0 1 0 6.683 0 3.342 3.342 0 0 0-6.683 0" fill="#dae3ea"/><path d="M573.746 313.94s1.11-.295 1.427.793c0 0-.235.835-1.585 1.033 0 0 .653-1.524.158-1.826M572.725 313.91s.623.966-.313 1.604c0 0-.867.034-1.473-1.19 0 0 1.652.15 1.786-.413M572.438 312.93s-.725.892-1.621.198c0 0-.3-.814.675-1.767 0 0 .368 1.617.946 1.57M573.281 312.355s-1.07-.414-.689-1.481c0 0 .682-.537 1.89.096 0 0-1.425.85-1.2 1.385M574.09 312.979s.063-1.147 1.195-1.112c0 0 .722.482.493 1.827 0 0-1.248-1.093-1.688-.715" fill="#a6aaaf"/><path d="M528.888 315.76a4.912 4.912 0 1 0 8.413-5.073 4.912 4.912 0 0 0-8.413 5.074" fill="#575d68"/><path d="M530.233 314.95a3.342 3.342 0 1 0 5.723-3.452 3.342 3.342 0 0 0-5.723 3.452" fill="#dae3ea"/><path d="M533.888 313.582s.798-.826 1.632-.058c0 0 .229.837-.824 1.704 0 0-.228-1.644-.808-1.646M532.998 314.084s1.032.504.56 1.534c0 0-.726.477-1.876-.257 0 0 1.493-.725 1.316-1.277M532.246 313.393s-.16 1.137-1.286 1.006c0 0-.678-.542-.335-1.863 0 0 1.15 1.196 1.621.857M532.671 312.464s-1.131.2-1.354-.913c0 0 .306-.81 1.668-.893 0 0-.782 1.463-.314 1.806M533.686 312.581s-.538-1.014.449-1.57c0 0 .867.04 1.366 1.31 0 0-1.633-.29-1.815.26" fill="#a6aaaf"/><path d="M534.068 323.584c-.395.02-1.043.32-1.287.678l-.76.78c-.2.285-.24.592-.14.877a.93.93 0 0 0 .611.589l6.595 1.95c1.07.25 4.46.438 7.9.438 1.8 0 3.48-.051 4.858-.148a13.98 13.98 0 0 0 5.888-1.757l7.304-4.087a.515.515 0 0 0 .258-.588.516.516 0 0 0-.506-.398l-30.72 1.666z" fill="#495862"/><path d="M557.862 327.27a14.512 14.512 0 0 1-5.998 1.744c-1.384.095-3.07.146-4.876.146-3.46 0-6.875-.185-7.946-.43l-6.621-1.909a1.183 1.183 0 0 1-.79-.737 1.142 1.142 0 0 1 .143-1.052l.026-.036.03-.032.764-.768c.315-.404 1.009-.708 1.46-.732l30.689-1.623h.002c.407 0 .719.24.807.583a.752.752 0 0 1-.396.865m-18.168 5.342c1.67 0 3.367-.044 4.838-.147a13.808 13.808 0 0 0 5.778-1.724l7.305-4.087c.24-.129.146-.49-.121-.49h-.016l-30.69 1.664c-.33.018-.896.291-1.082.563l-.79.815a.678.678 0 0 0 .36 1.03l6.593 1.95c1.014.238 4.364.426 7.825.426" fill="#868a8d"/><path d="M579.964 317.372l-.008.997-2.394 1.675 4.297-.732a4.067 4.067 0 0 0 2.18-1.122l.19-.189v-.596s-4.273-.04-4.265-.033" fill="#e4e4e5"/><path d="M552.965 320.484l-3.022-.136a.337.337 0 1 0 .02.673l3.01-.314c.136-.014.13-.217-.008-.223M538.51 321.582l-3.022-.136a.337.337 0 1 0 .02.673l3.01-.314c.136-.014.13-.217-.008-.223" fill="#dae3ea"/><path d="M520.071 323.005c-.022-.043-.878-1.708-.725-2.574a.741.741 0 0 0-.029-.33l3.186-.307-.232 1.095 3.521 1.715c.147.071.098.293-.066.296l-5.655.105z" fill="#cb3f47"/><path d="M533.685 323.952c.144-.056.285-.099.398-.105l1.82-.098 1.453 3.921-2.64-.78-1.03-2.938zM546.86 328.63l.886-5.524 2.475-.135-1.607 5.644c-.582.011-1.169.016-1.754.015" fill="#262c33"/><path d="M581.602 319.054s1.937-.64 1.488-.992c-.448-.352-2.112-.464-2.112-.464s1.504.944.624 1.456" fill="#aeafb4"/><path d="M581.907 314.908l2.718-.125.125-2.146s-.787-.268-.715.787c0 0-.662-.18-.59.07.07.252-.197.59-.197.59l-1.037.073s-.644.519-.304.75" fill="#e4e4e5"/><path d="M558.291 328.618l-1.039-.276s8.998-5.11 10.442-5.183c1.444-.074 4.332-.148 2.925.592-.226.119-.457.233-.687.344-.758.1-1.486.182-2.157.236 0 0-4.973 2.65-9.484 4.287" fill="#495862"/><path d="M561.292 322.372l3.48-.19c.279-.015.383.36.137.491l-2.808 1.571-.81-1.873z" fill="#262c33"/><path d="M519.42 321.298c.476-.228 1.105-.354 1.918-.354l.169.001a.264.264 0 0 1-.005.529h-.005c-.98-.02-1.571.134-1.931.327a5.626 5.626 0 0 1-.146-.502" fill="#e4e4e5"/><path d="M539.611 314.73s.38.046 1.046.102c.666.045 1.616.14 2.757.2 2.283.134 5.325.222 8.368.226 3.043-.003 6.086-.09 8.368-.225 1.141-.059 2.092-.155 2.757-.2.666-.056 1.046-.103 1.046-.103s-.38-.047-1.046-.103c-.665-.045-1.616-.14-2.757-.2-2.282-.135-5.325-.222-8.368-.225-3.043.004-6.085.092-8.368.226-1.14.06-2.09.154-2.757.2-.666.056-1.046.102-1.046.102" fill="#37404a"/></g><path d="M91.463 81.12l4.68 8.107 4.681 8.107H82.102l4.681-8.107 4.68-8.106z" fill="#ffce03"/><path d="M85.865 95.38h10.974l-5.488-10.272-5.486 10.271zm12.208.738H84.63l6.72-12.579 6.722 12.58z" fill="#fff"/><path d="M92.392 118.05h-1.856V97.336h1.856v20.716z" fill="#616161"/><g clip-path="url(#c)" transform="matrix(1.5455 0 0 -1.5455 -836.997 597.98)"><path d="M600.938 325.775h-.617v.617h.617v-.617zm-.588.903a.767.767 0 0 0-.035.25c0 .891.699.973.699 1.986 0 .291-.116.402-.32.402-.204 0-.321-.111-.321-.402v-.443h-.605v.402c0 .652.32 1.025.943 1.025s.944-.373.944-1.025c0-1.06-.757-1.223-.757-1.968 0-.076.005-.152.023-.227h-.571z" fill="#231f20"/><path d="M604.205 294.911l4.325 2.837 5.057-3.044 3.682 5.891 2.651-5.684 3.092 2.984 3.044-3.19 2.798.49 1.031 1.444 2.209-1.935 2.062 1.676 1.915-2.118 2.896 6.333 1.797-6.128h7.787s-1.746-13.628-22.603-13.628c-20.858 0-21.743 14.072-21.743 14.072" fill="#437f43"/><path d="M631.23 354.584a7.188 7.188 0 0 0-.017.44 7.692 7.692 0 0 0 11.296 6.798c1.218 4.462 5.295 7.747 10.149 7.747 5.804 0 10.512-4.709 10.512-10.52 0-1.596-.36-3.108-.993-4.465H631.23zM590.81 341.63c.009.17.025.335.025.506 0 4.887-4.097 8.848-9.155 8.848a9.327 9.327 0 0 1-5.34-1.672c.002.078.008.155.008.232 0 5.884-4.936 10.655-11.024 10.655-6.09 0-11.026-4.77-11.026-10.655 0-.066.004-.134.006-.202a8.294 8.294 0 0 1-2.545.403c-4.442 0-8.043-3.48-8.043-7.77 0-.117.014-.23.019-.346h47.075z" fill="#81aac3"/><path d="M625.772 339.725c.003.072.009.141.009.213 0 2.058-1.487 3.725-3.323 3.725a3.075 3.075 0 0 1-1.938-.704c0 .033.003.065.003.098 0 2.477-1.791 4.485-4.001 4.485-2.21 0-4.001-2.008-4.001-4.485 0-.028 0-.057.002-.085-.291.108-.601.17-.924.17-1.612 0-2.92-1.465-2.92-3.272 0-.049.006-.096.008-.145h17.085z" fill="#96bbd2"/><path d="M660.18 294.826h-15.206l-2.458-3.402-16.633-3.025-19.092 6.427h-53.766c9.886-19.558 30.164-32.97 53.577-32.97 23.413 0 43.69 13.412 53.578 32.97" fill="#437f43"/></g></svg>